<svg width="753" height="264" viewBox="0 0 753 264" fill="none" xmlns="http://www.w3.org/2000/svg">
<path d="M10.4491 31.615L59.4491 74L35.5256 0L10.4491 31.615Z" fill="#438CFB"/>
<path d="M67.4467 9.1634L71.598 68.5722L96.117 24.1163L67.4467 9.1634Z" fill="#438CFB"/>
<path d="M19.4471 103.395L54.5502 82.2889L4.62179 81.7707L19.4471 103.395Z" fill="#438CFB"/>
<path d="M727.204 186.621L663.492 174.859L721.574 226.579L727.204 186.621Z" fill="#438CFB"/>
<path d="M689.404 234.828L655.761 185.688L657.109 236.44L689.404 234.828Z" fill="#438CFB"/>
<path d="M683.12 129.263L663.523 165.231L706.849 140.412L683.12 129.263Z" fill="#438CFB"/>
<path d="M71.0455 176V82.9091H135.955V101.182H93.5455V120.273H132.636V138.591H93.5455V157.727H135.955V176H71.0455ZM194.727 120.909V138H151.636V120.909H194.727ZM294.92 116.636H272.193C271.89 114.303 271.269 112.197 270.33 110.318C269.39 108.439 268.148 106.833 266.602 105.5C265.057 104.167 263.223 103.152 261.102 102.455C259.011 101.727 256.693 101.364 254.148 101.364C249.633 101.364 245.739 102.47 242.466 104.682C239.223 106.894 236.723 110.091 234.966 114.273C233.239 118.455 232.375 123.515 232.375 129.455C232.375 135.636 233.254 140.818 235.011 145C236.799 149.152 239.299 152.288 242.511 154.409C245.754 156.5 249.587 157.545 254.011 157.545C256.496 157.545 258.754 157.227 260.784 156.591C262.845 155.955 264.648 155.03 266.193 153.818C267.769 152.576 269.057 151.076 270.057 149.318C271.087 147.53 271.799 145.515 272.193 143.273L294.92 143.409C294.527 147.53 293.33 151.591 291.33 155.591C289.36 159.591 286.648 163.242 283.193 166.545C279.739 169.818 275.527 172.424 270.557 174.364C265.617 176.303 259.951 177.273 253.557 177.273C245.133 177.273 237.587 175.424 230.92 171.727C224.284 168 219.042 162.576 215.193 155.455C211.345 148.333 209.42 139.667 209.42 129.455C209.42 119.212 211.375 110.53 215.284 103.409C219.193 96.2879 224.481 90.8788 231.148 87.1818C237.814 83.4848 245.284 81.6364 253.557 81.6364C259.193 81.6364 264.405 82.4242 269.193 84C273.981 85.5455 278.193 87.8182 281.83 90.8182C285.466 93.7879 288.42 97.4394 290.693 101.773C292.966 106.106 294.375 111.061 294.92 116.636ZM307.795 176V82.9091H330.295V157.727H369.023V176H307.795ZM464.909 129.455C464.909 139.697 462.939 148.379 459 155.5C455.061 162.621 449.727 168.03 443 171.727C436.303 175.424 428.788 177.273 420.455 177.273C412.091 177.273 404.561 175.409 397.864 171.682C391.167 167.955 385.848 162.545 381.909 155.455C378 148.333 376.045 139.667 376.045 129.455C376.045 119.212 378 110.53 381.909 103.409C385.848 96.2879 391.167 90.8788 397.864 87.1818C404.561 83.4848 412.091 81.6364 420.455 81.6364C428.788 81.6364 436.303 83.4848 443 87.1818C449.727 90.8788 455.061 96.2879 459 103.409C462.939 110.53 464.909 119.212 464.909 129.455ZM441.909 129.455C441.909 123.394 441.045 118.273 439.318 114.091C437.621 109.909 435.167 106.742 431.955 104.591C428.773 102.439 424.939 101.364 420.455 101.364C416 101.364 412.167 102.439 408.955 104.591C405.742 106.742 403.273 109.909 401.545 114.091C399.848 118.273 399 123.394 399 129.455C399 135.515 399.848 140.636 401.545 144.818C403.273 149 405.742 152.167 408.955 154.318C412.167 156.47 416 157.545 420.455 157.545C424.939 157.545 428.773 156.47 431.955 154.318C435.167 152.167 437.621 149 439.318 144.818C441.045 140.636 441.909 135.515 441.909 129.455ZM534.364 82.9091H556.818V142.955C556.818 149.894 555.167 155.939 551.864 161.091C548.561 166.212 543.955 170.182 538.045 173C532.136 175.788 525.273 177.182 517.455 177.182C509.545 177.182 502.636 175.788 496.727 173C490.818 170.182 486.227 166.212 482.955 161.091C479.682 155.939 478.045 149.894 478.045 142.955V82.9091H500.545V141C500.545 144.212 501.242 147.076 502.636 149.591C504.061 152.106 506.045 154.076 508.591 155.5C511.136 156.924 514.091 157.636 517.455 157.636C520.818 157.636 523.758 156.924 526.273 155.5C528.818 154.076 530.803 152.106 532.227 149.591C533.652 147.076 534.364 144.212 534.364 141V82.9091ZM605.33 176H570.92V82.9091H605.284C614.769 82.9091 622.936 84.7727 629.784 88.5C636.663 92.197 641.966 97.5303 645.693 104.5C649.42 111.439 651.284 119.742 651.284 129.409C651.284 139.106 649.42 147.439 645.693 154.409C641.996 161.379 636.708 166.727 629.83 170.455C622.951 174.152 614.784 176 605.33 176ZM593.42 156.818H604.466C609.678 156.818 614.087 155.939 617.693 154.182C621.33 152.394 624.072 149.5 625.92 145.5C627.799 141.47 628.739 136.106 628.739 129.409C628.739 122.712 627.799 117.379 625.92 113.409C624.042 109.409 621.269 106.53 617.602 104.773C613.966 102.985 609.481 102.091 604.148 102.091H593.42V156.818Z" fill="#438CFB"/>
</svg>
